<?xml version="1.0" encoding="utf-8"?>
<!-- Generator: Adobe Illustrator 19.1.0, SVG Export Plug-In . SVG Version: 6.00 Build 0)  -->
<svg version="1.1" xmlns="http://www.w3.org/2000/svg" xmlns:xlink="http://www.w3.org/1999/xlink" x="0px" y="0px"
	 viewBox="0 0 279.3333 190.4092" style="enable-background:new 0 0 279.3333 190.4092;" xml:space="preserve">
<style type="text/css">
	.st0{opacity:0.15;fill:#299951;}
	.st1{fill:#131312;}
	.st2{fill:none;stroke:#000000;stroke-width:0.25;}
	.st3{fill:none;stroke:#000000;stroke-width:0.25;stroke-miterlimit:10;}
	.st4{fill:none;stroke:#006699;stroke-linecap:round;}
	.st5{fill:#48A0B5;stroke:#000000;stroke-width:0.5;}
</style>
<g id="_x3C_Layer_x3E_">
	<path class="st0" d="M63.375,156.4105c0,0,0-83.6915,0-100.5013l0.0104,0.0104L45.4479,75.3258L45.5,75.6175
		c0,13.4993,0,80.7083,0,80.7083"/>
	<path class="st0" d="M63.25,156.3689c0,0,0-83.6915,0-100.5013l-0.0521,0.0417l18,36.625h0.0104c0,10.6628,0,63.75,0,63.75"/>
	<path class="st0" d="M81.2083,156.3675c0,0,0-53.0872,0-63.75l18.125,12.5833v-0.2083c0,8.593,0,51.375,0,51.375"/>
	<path class="st0" d="M117.25,156.3259c0,0,0-41.2553,0-49.5417l-0.0417,0.0417l-17.8958-1.6875l0.0625-0.1458
		c0,8.593,0,51.375,0,51.375"/>
	<path class="st0" d="M135.25,156.2842c0,0,0-47.0498,0-56.5v0.0208l-18.0208,7.1042l0.0208-0.0833c0,8.2863,0,49.5417,0,49.5417"/>
	<path class="st0" d="M153.3333,156.3259c0,0,0-61.831,0-74.25l0.0625,0.0833l-18.125,17.6458l0.0208-0.0625c0,9.4502,0,56.5,0,56.5
		"/>
	<path class="st0" d="M171.3333,156.3675c0,0,0-89.6931,0-107.7083h-0.0417l-17.9375,33.4167l-0.0208-0.0833
		c0,12.419,0,74.25,0,74.25"/>
	<path class="st0" d="M189.25,156.3675c0,0,0-100.4146,0-120.5833v0.0625l-17.9583,12.8958v0.0417c0,18.0153,0,107.7083,0,107.7083"
		/>
	<path class="st0" d="M189.2917,156.4092c0,0,0-100.4146,0-120.5833v0.0208l17.9792,15.7708h0.0208c0,17.5274,0,104.7917,0,104.7917
		"/>
	<path class="st0" d="M207.2083,156.3259c0,0,0-87.2642,0-104.7917l-0.0417-0.0208l18.1458,31l0.0208,0.0625
		c0,12.3424,0,73.7917,0,73.7917"/>
	<path class="st0" d="M243.25,156.4509c0,0,0-74.9119,0-89.9583h0.0417L225.375,82.5342v0.0833c0,12.3424,0,73.7917,0,73.7917"/>
	<path class="st1" d="M36.4163,156.4097"/>
	<line class="st1" x1="63.3348" y1="156.4912" x2="64.3309" y2="156.4912"/>
	<g>
		<g>
			<line class="st2" x1="0" y1="156.4087" x2="273.2191" y2="156.4087"/>
			<g>
				<path d="M271.8729,156.4087l-1.6436-2.7023l0.0923-0.0612l4.4062,1.7501c1.5352,0.3376,3.0703,0.6753,4.6055,1.0133
					c-1.5352,0.3376-3.0703,0.6753-4.6055,1.0133l-4.4062,1.7501l-0.0923-0.0461L271.8729,156.4087z"/>
			</g>
		</g>
	</g>
	<g>
		<path d="M26.8714,12.6973l0.0645-0.9961c0.2188,0.0625,0.4316,0.0938,0.6387,0.0938c0.2148,0,0.3887-0.0488,0.5215-0.1465
			c0.1719-0.1289,0.3594-0.3711,0.5625-0.7266l0.3398-0.6094l-1.0371-6.2402h1.043l0.4688,3.1465
			c0.0938,0.6211,0.1738,1.2422,0.2402,1.8633l2.7832-5.0098h1.1074l-3.9668,7.0488c-0.3828,0.6875-0.7227,1.1426-1.0195,1.3652
			s-0.6387,0.334-1.0254,0.334C27.346,12.8203,27.1058,12.7793,26.8714,12.6973z"/>
	</g>
	<g>
		<path d="M272.5657,166.7935l2.707-3.1582l-1.5527-3.0645h1.1719l0.5273,1.1074c0.1953,0.4141,0.3711,0.8105,0.5273,1.1895
			l1.793-2.2969h1.2949l-2.6133,3.1465l1.5703,3.0762h-1.1719l-0.6211-1.2656c-0.1328-0.2695-0.2832-0.6035-0.4512-1.002
			l-1.8516,2.2676H272.5657z"/>
	</g>
	<g>
		<g>
			<line class="st2" x1="36.3327" y1="190.4092" x2="36.3327" y2="9.7734"/>
			<g>
				<path d="M36.3327,11.1196l-2.7023,1.6436l-0.0612-0.0923l1.7501-4.4062c0.3376-1.5352,0.6753-3.0703,1.0133-4.6055
					c0.3377,1.5352,0.6753,3.0703,1.0133,4.6055l1.7501,4.4062L39.05,12.7632L36.3327,11.1196z"/>
			</g>
		</g>
	</g>
	<g>
		<path d="M27.2557,162.7236c0-1.0156,0.1045-1.833,0.3135-2.4521s0.5195-1.0967,0.9316-1.4326s0.9307-0.5039,1.5557-0.5039
			c0.4609,0,0.8652,0.0928,1.2129,0.2783s0.6348,0.4531,0.8613,0.8027s0.4043,0.7754,0.5332,1.2773s0.1934,1.1787,0.1934,2.0303
			c0,1.0078-0.1035,1.8213-0.3105,2.4404s-0.5166,1.0977-0.9287,1.4355s-0.9326,0.5068-1.5615,0.5068
			c-0.8281,0-1.4785-0.2969-1.9512-0.8906C27.5389,165.501,27.2557,164.3369,27.2557,162.7236z M28.3397,162.7236
			c0,1.4102,0.165,2.3486,0.4951,2.8154s0.7373,0.7002,1.2217,0.7002s0.8916-0.2344,1.2217-0.7031s0.4951-1.4062,0.4951-2.8125
			c0-1.4141-0.165-2.3535-0.4951-2.8184s-0.7412-0.6973-1.2334-0.6973c-0.4844,0-0.8711,0.2051-1.1602,0.6152
			C28.5213,160.3467,28.3397,161.3135,28.3397,162.7236z"/>
	</g>
	<g>
		<g>
			<path d="M119.3148,53.1528c0.083-0.0957,0.2041-0.1436,0.3623-0.1436c0.1035,0,0.1953,0.0195,0.2744,0.0596
				c0.0791,0.0391,0.1621,0.0967,0.249,0.1714l0.0879,0.0625c0.0244,0.0205,0.0527,0.0361,0.084,0.0464
				c0.0312,0.0107,0.0654,0.0156,0.1025,0.0156c0.2041,0,0.5312-0.2686,0.9824-0.8062s0.6768-0.9292,0.6768-1.1738
				c0-0.2324-0.0771-0.689-0.2334-1.3701c-0.1562-0.6807-0.3066-1.2866-0.4521-1.8184c-0.2041-0.7471-0.3896-1.2534-0.5586-1.519
				c-0.168-0.2656-0.417-0.3984-0.7451-0.3984c-0.0254,0-0.0684,0.0029-0.1279,0.0093c-0.0605,0.0063-0.1631,0.0176-0.3086,0.0342
				v-0.2061l1.7021-0.3301l0.1309-0.0127c0.1035-0.0127,0.3037,0.4556,0.5986,1.4033c0.2666,0.853,0.4316,1.4731,0.4961,1.8613
				l0.252,1.4883c0.4365-0.7329,0.7578-1.2949,0.9619-1.686c0.3994-0.7705,0.5986-1.3096,0.5986-1.6177
				c0-0.0708-0.0127-0.1406-0.0371-0.2095c-0.0254-0.0688-0.083-0.1279-0.1748-0.1782l-0.1064-0.0562
				c-0.0664-0.0332-0.1445-0.0957-0.2334-0.187c-0.0898-0.0918-0.1338-0.2148-0.1338-0.3687c0-0.1289,0.041-0.2373,0.124-0.3247
				s0.208-0.1313,0.375-0.1313c0.207,0,0.376,0.0615,0.5049,0.1841c0.1289,0.123,0.1934,0.332,0.1934,0.6274
				c0,0.4453-0.2432,1.1606-0.7295,2.147c-0.375,0.7515-0.793,1.48-1.2539,2.1855c-0.5781,0.8804-1.0752,1.5596-1.4912,2.0371
				c-0.6611,0.752-1.21,1.1279-1.6465,1.1279c-0.1709,0-0.3213-0.0522-0.4521-0.1562s-0.1973-0.2451-0.1973-0.4238
				C119.1898,53.3628,119.2318,53.2485,119.3148,53.1528z"/>
		</g>
		<g>
			<path d="M128.1478,46.4473h6.7178v0.7046h-6.7178V46.4473z M128.1478,48.9297h6.7178v0.6987h-6.7178V48.9297z"/>
		</g>
		<g>
			<path d="M145.4857,43.9395c-0.0918,0.1162-0.2188,0.1748-0.3809,0.1748c-0.1416,0-0.2578-0.0449-0.3496-0.1353
				c-0.0918-0.0898-0.1367-0.1953-0.1367-0.3169c0-0.0835,0.0391-0.2275,0.1182-0.4326c0-0.0542-0.0273-0.1025-0.0811-0.1445
				c-0.0469-0.0376-0.1045-0.0562-0.1709-0.0562c-0.3125,0-0.5732,0.3354-0.7842,1.0063c-0.1172,0.3877-0.25,1.0396-0.3965,1.9565
				h1.3916l-0.0879,0.418h-1.4189l-1.1934,4.0752c-0.252,1.0771-0.5908,1.9482-1.0156,2.6128s-0.9678,0.9971-1.6299,0.9971
				c-0.3037,0-0.5527-0.0811-0.7471-0.2432s-0.291-0.3433-0.291-0.543c0-0.1245,0.04-0.2412,0.1211-0.3491
				c0.0811-0.1084,0.2031-0.1621,0.3652-0.1621c0.1416,0,0.2607,0.0469,0.3584,0.1401c0.0977,0.0938,0.1465,0.209,0.1465,0.3462
				c0,0.0752-0.0215,0.1509-0.0654,0.228c-0.043,0.0767-0.0654,0.1299-0.0654,0.1587c0,0.0376,0.0244,0.0688,0.0723,0.0938
				s0.1094,0.0376,0.1836,0.0376c0.3545,0,0.6543-0.2788,0.9004-0.8359c0.1289-0.2915,0.2471-0.6924,0.3555-1.2041l1.4824-5.3521
				h-1.1543l0.0879-0.418h1.208c0.2275-0.9688,0.4824-1.6865,0.7656-2.1519c0.4209-0.7153,0.9414-1.0732,1.5596-1.0732
				c0.2832,0,0.5186,0.0811,0.707,0.2432c0.1885,0.1626,0.2822,0.3477,0.2822,0.5552
				C145.6224,43.6982,145.5765,43.8232,145.4857,43.9395z"/>
		</g>
		<g>
			<path d="M152.0843,50.6606c0.0996-0.0684,0.2021-0.103,0.3057-0.103c0.0498,0,0.0996,0.0073,0.1504,0.022
				c0.0498,0.0146,0.1035,0.0386,0.1621,0.0718l0.2178,0.1187c0.0293,0.0166,0.0576,0.0278,0.084,0.0342
				c0.0273,0.0063,0.0576,0.0093,0.0908,0.0093c0.1035,0,0.1836-0.0259,0.2402-0.0776c0.0557-0.0522,0.2002-0.2344,0.4336-0.5459
				c0.1533-0.2036,0.5029-0.7007,1.0479-1.4912c0-0.0288-0.0479-0.2524-0.1436-0.6704s-0.1826-0.7725-0.2617-1.0635
				c-0.0791-0.2954-0.1504-0.4897-0.2119-0.5835c-0.0625-0.0933-0.1797-0.1401-0.3496-0.1401c-0.0586,0-0.1729,0.021-0.3428,0.0625
				c-0.1084,0.0249-0.2246,0.0542-0.3496,0.0874l-0.0566-0.1934l0.6924-0.2373c0.1787-0.0625,0.3447-0.1123,0.4961-0.1494
				c0.1523-0.0376,0.2822-0.0562,0.3896-0.0562c0.1748,0,0.3057,0.0518,0.3936,0.1558c0.1328,0.1665,0.2451,0.4951,0.3369,0.9854
				l0.1309,0.7114c0.374-0.5742,0.665-0.9775,0.873-1.2104c0.1875-0.2119,0.3643-0.3701,0.5303-0.4741
				c0.166-0.1035,0.3242-0.1558,0.4746-0.1558c0.1406,0,0.2559,0.021,0.3428,0.0625c0.1582,0.0747,0.2373,0.2163,0.2373,0.4243
				c0,0.1411-0.04,0.2515-0.1191,0.3306s-0.1807,0.1182-0.3057,0.1182c-0.0459,0-0.0889-0.0049-0.1309-0.0156
				c-0.041-0.0103-0.085-0.0259-0.1309-0.0464l-0.1621-0.0688c-0.0459-0.0205-0.0898-0.0386-0.1309-0.0532
				c-0.042-0.0142-0.0732-0.0215-0.0938-0.0215c-0.1875,0-0.4473,0.2422-0.7793,0.7266c-0.333,0.4844-0.499,0.7642-0.499,0.8389
				c0,0.0625,0.0381,0.2651,0.1152,0.6084s0.1611,0.7061,0.2529,1.0884c0.083,0.3618,0.1533,0.6113,0.2119,0.7485
				c0.0957,0.2246,0.2031,0.3369,0.3242,0.3369c0.1123,0,0.2266-0.0625,0.3428-0.187c0.1162-0.125,0.291-0.3496,0.5244-0.6738
				l0.1738,0.106c-0.1787,0.3247-0.3633,0.6011-0.5547,0.8296c-0.3623,0.4326-0.707,0.6489-1.0352,0.6489
				c-0.208,0-0.373-0.0996-0.4932-0.2993c-0.0703-0.1162-0.1396-0.3076-0.2061-0.5737l-0.3867-1.541l-1.2783,1.6782
				c-0.25,0.291-0.4424,0.4863-0.5771,0.5859c-0.1357,0.1001-0.3027,0.1499-0.502,0.1499c-0.2666,0-0.4473-0.083-0.543-0.2495
				c-0.0537-0.0874-0.0811-0.1914-0.0811-0.312C151.9349,50.8447,151.9847,50.7295,152.0843,50.6606z"/>
		</g>
		<g>
			<path d="M150.598,54.8501l-0.125,0.2842c-0.1748,0-0.5283-0.3379-1.0605-1.0137c-0.5693-0.7085-1.0332-1.522-1.3906-2.4409
				c-0.3828-0.9248-0.5742-2.1655-0.5742-3.7222c0-1.5464,0.1875-2.7896,0.5615-3.7305c0.3535-0.9028,0.8174-1.7163,1.3916-2.4409
				c0.5361-0.665,0.8936-0.9976,1.0723-0.9976l0.125,0.2842c-0.6318,0.6538-1.0439,1.23-1.2354,1.7271
				c-0.1953,0.4868-0.3613,1.0273-0.499,1.6221c-0.1416,0.6055-0.2305,1.1758-0.2676,1.7109
				c-0.0508,0.5352-0.0752,1.1436-0.0752,1.8247c0,0.6055,0.0205,1.2056,0.0625,1.8003c0.0332,0.4917,0.1387,1.1162,0.3184,1.873
				c0.1699,0.7139,0.3613,1.2896,0.5732,1.7275C149.6917,53.8013,150.0658,54.2988,150.598,54.8501z"/>
		</g>
		<g>
			<path d="M159.389,55.1343l-0.1309-0.2842c0.6445-0.6646,1.0625-1.2407,1.2539-1.7271c0.1621-0.3945,0.3242-0.9409,0.4863-1.6382
				c0.1367-0.6001,0.2305-1.165,0.2803-1.6948c0.042-0.5947,0.0625-1.2056,0.0625-1.8325c0-0.5947-0.0205-1.1978-0.0625-1.8086
				c-0.0332-0.4971-0.1348-1.1162-0.3057-1.8569c-0.1533-0.6543-0.3486-1.23-0.5859-1.7271
				c-0.2119-0.4326-0.5889-0.9302-1.1289-1.4922l0.1309-0.2842c0.1787,0,0.5361,0.3325,1.0723,0.9976
				c0.5498,0.6973,1.0127,1.5112,1.3916,2.4409c0.374,0.9409,0.5615,2.1841,0.5615,3.7305c0,1.5459-0.1875,2.7866-0.5615,3.7222
				c-0.3574,0.9189-0.8213,1.7324-1.3916,2.4409C159.929,54.7964,159.5716,55.1343,159.389,55.1343z"/>
		</g>
	</g>
	<g>
		<path d="M45.6771,165.9502c-0.3672,0.3164-0.7207,0.5479-1.0605,0.6943s-0.7031,0.2197-1.0898,0.2197
			c-0.5742,0-1.0371-0.1689-1.3887-0.5068s-0.5273-0.7705-0.5273-1.2979c0-0.3477,0.0791-0.6553,0.2373-0.9229
			s0.3682-0.4824,0.6299-0.6445s0.582-0.2783,0.9609-0.3486c0.2383-0.0469,0.6904-0.084,1.3564-0.1113s1.1436-0.0977,1.4326-0.2109
			c0.082-0.2891,0.123-0.5293,0.123-0.7207c0-0.2461-0.0898-0.4395-0.2695-0.5801c-0.2461-0.1953-0.6055-0.293-1.0781-0.293
			c-0.4453,0-0.8096,0.0986-1.0928,0.2959s-0.4893,0.4775-0.6182,0.8408l-1.0723-0.0938c0.2188-0.6172,0.5654-1.0898,1.04-1.418
			s1.0732-0.4922,1.7959-0.4922c0.7695,0,1.3789,0.1836,1.8281,0.5508c0.3438,0.2734,0.5156,0.6289,0.5156,1.0664
			c0,0.332-0.0488,0.7168-0.1465,1.1543l-0.3457,1.5469c-0.1094,0.4922-0.1641,0.8926-0.1641,1.2012
			c0,0.1953,0.043,0.4766,0.1289,0.8438h-1.0723C45.7415,166.5205,45.7005,166.2627,45.6771,165.9502z M46.0697,163.5713
			c-0.1484,0.0586-0.3076,0.1035-0.4775,0.1348s-0.4541,0.0645-0.8525,0.0996c-0.6172,0.0547-1.0527,0.124-1.3066,0.208
			s-0.4453,0.2178-0.5742,0.4014s-0.1934,0.3867-0.1934,0.6094c0,0.2969,0.1025,0.541,0.3076,0.7324s0.4971,0.2871,0.876,0.2871
			c0.3516,0,0.6895-0.0928,1.0137-0.2783s0.5801-0.4443,0.7676-0.7764S45.9642,164.1846,46.0697,163.5713z"/>
	</g>
	<g>
		<path d="M240.6068,166.7236l1.793-8.5898h1.0605l-0.6387,3.0703c0.3359-0.3086,0.6406-0.5264,0.9141-0.6533
			s0.5586-0.1904,0.8555-0.1904c0.582,0,1.0674,0.2168,1.4561,0.6504s0.583,1.0645,0.583,1.8926
			c0,0.5508-0.0781,1.0547-0.2344,1.5117s-0.3496,0.8408-0.5801,1.1514s-0.4688,0.5586-0.7148,0.7441s-0.498,0.3242-0.7559,0.416
			s-0.5059,0.1377-0.7441,0.1377c-0.4102,0-0.7715-0.1084-1.084-0.3252s-0.5566-0.5479-0.7324-0.9932l-0.2461,1.1777H240.6068z
			 M242.1771,164.1689l-0.0059,0.1992c0,0.5312,0.127,0.9355,0.3809,1.2129s0.5703,0.416,0.9492,0.416
			c0.3711,0,0.7119-0.1299,1.0225-0.3896s0.5654-0.665,0.7646-1.2158s0.2988-1.0586,0.2988-1.5234
			c0-0.5234-0.126-0.9297-0.3779-1.2188s-0.5635-0.4336-0.9346-0.4336c-0.3828,0-0.7344,0.1475-1.0547,0.4424
			s-0.5879,0.749-0.8027,1.3623C242.2572,163.4775,242.1771,163.8604,242.1771,164.1689z"/>
	</g>
	<path class="st3" d="M81.25,92.6592c0,10.6628,0,63.75,0,63.75"/>
	<path class="st3" d="M99.375,105.0342c0,8.593,0,51.375,0,51.375"/>
	<path class="st3" d="M153.2917,82.1175c0,12.419,0,74.25,0,74.25"/>
	<g>
		<g>
			<path d="M59.9735,165.623c0.0938-0.0645,0.1895-0.0967,0.2871-0.0967c0.0469,0,0.0938,0.0068,0.1406,0.0205
				s0.0977,0.0361,0.1523,0.0674l0.2051,0.1113c0.0273,0.0156,0.0537,0.0264,0.0791,0.0322s0.0537,0.0088,0.085,0.0088
				c0.0977,0,0.1729-0.0244,0.2256-0.0732s0.1885-0.2197,0.4072-0.5127c0.1445-0.1914,0.4727-0.6582,0.9844-1.4004
				c0-0.0273-0.0449-0.2373-0.1348-0.6299s-0.1719-0.7256-0.2461-0.999c-0.0742-0.2773-0.1406-0.46-0.1992-0.5479
				s-0.168-0.1318-0.3281-0.1318c-0.0547,0-0.1621,0.0195-0.3223,0.0586c-0.1016,0.0234-0.2109,0.0508-0.3281,0.082l-0.0527-0.1816
				l0.6504-0.2227c0.168-0.0586,0.3232-0.1055,0.4658-0.1406s0.2646-0.0527,0.3662-0.0527c0.1641,0,0.2871,0.0488,0.3691,0.1465
				c0.125,0.1562,0.2305,0.4648,0.3164,0.9258l0.123,0.668c0.3516-0.5391,0.625-0.918,0.8203-1.1367
				c0.1758-0.1992,0.3418-0.3477,0.498-0.4453s0.3047-0.1465,0.4453-0.1465c0.1328,0,0.2402,0.0195,0.3223,0.0586
				c0.1484,0.0703,0.2227,0.2031,0.2227,0.3984c0,0.1328-0.0371,0.2363-0.1113,0.3105s-0.1699,0.1113-0.2871,0.1113
				c-0.043,0-0.084-0.0049-0.123-0.0146s-0.0801-0.0244-0.123-0.0439l-0.1523-0.0645c-0.043-0.0195-0.084-0.0361-0.123-0.0498
				s-0.0684-0.0205-0.0879-0.0205c-0.1758,0-0.4199,0.2275-0.7324,0.6826s-0.4688,0.7178-0.4688,0.7881
				c0,0.0586,0.0361,0.249,0.1084,0.5713s0.1514,0.6631,0.2373,1.0225c0.0781,0.3398,0.1445,0.5742,0.1992,0.7031
				c0.0898,0.2109,0.1914,0.3164,0.3047,0.3164c0.1055,0,0.2129-0.0586,0.3223-0.1758s0.2734-0.3281,0.4922-0.6328l0.1641,0.0996
				c-0.168,0.3047-0.3418,0.5645-0.5215,0.7793c-0.3398,0.4062-0.6641,0.6094-0.9727,0.6094c-0.1953,0-0.3496-0.0938-0.4629-0.2812
				c-0.0664-0.1094-0.1309-0.2891-0.1934-0.5391l-0.3633-1.4473l-1.2012,1.5762c-0.2344,0.2734-0.415,0.457-0.542,0.5508
				s-0.2842,0.1406-0.4717,0.1406c-0.25,0-0.4199-0.0781-0.5098-0.2344c-0.0508-0.082-0.0762-0.1797-0.0762-0.293
				C59.8328,165.7959,59.8797,165.6875,59.9735,165.623z"/>
		</g>
		<g>
			<path d="M67.1097,164.7178c0.0015,0.0059,0.002,0.0186,0.002,0.0391v4.0781c0,0.1738,0.0464,0.2852,0.1396,0.332
				c0.0928,0.0479,0.2666,0.0762,0.521,0.085v0.0947h-1.9141v-0.1016c0.2729-0.0137,0.4517-0.0508,0.5352-0.1123
				c0.0835-0.0605,0.1255-0.1924,0.1255-0.3955v-3.1367c0-0.1084-0.0137-0.1914-0.0405-0.248
				c-0.0273-0.0557-0.0859-0.084-0.1763-0.084c-0.0591,0-0.1353,0.0156-0.229,0.0488c-0.0938,0.0322-0.1812,0.0674-0.2622,0.1035
				v-0.0947l1.2432-0.6338h0.0405C67.1038,164.7041,67.1087,164.7119,67.1097,164.7178z"/>
		</g>
	</g>
	<g>
		<g>
			<path d="M77.89,165.623c0.0938-0.0645,0.1895-0.0967,0.2871-0.0967c0.0469,0,0.0938,0.0068,0.1406,0.0205
				s0.0977,0.0361,0.1523,0.0674l0.2051,0.1113c0.0273,0.0156,0.0537,0.0264,0.0791,0.0322s0.0537,0.0088,0.085,0.0088
				c0.0977,0,0.1729-0.0244,0.2256-0.0732s0.1885-0.2197,0.4072-0.5127c0.1445-0.1914,0.4727-0.6582,0.9844-1.4004
				c0-0.0273-0.0449-0.2373-0.1348-0.6299s-0.1719-0.7256-0.2461-0.999c-0.0742-0.2773-0.1406-0.46-0.1992-0.5479
				s-0.168-0.1318-0.3281-0.1318c-0.0547,0-0.1621,0.0195-0.3223,0.0586c-0.1016,0.0234-0.2109,0.0508-0.3281,0.082l-0.0527-0.1816
				l0.6504-0.2227c0.168-0.0586,0.3232-0.1055,0.4658-0.1406s0.2646-0.0527,0.3662-0.0527c0.1641,0,0.2871,0.0488,0.3691,0.1465
				c0.125,0.1562,0.2305,0.4648,0.3164,0.9258l0.123,0.668c0.3516-0.5391,0.625-0.918,0.8203-1.1367
				c0.1758-0.1992,0.3418-0.3477,0.498-0.4453s0.3047-0.1465,0.4453-0.1465c0.1328,0,0.2402,0.0195,0.3223,0.0586
				c0.1484,0.0703,0.2227,0.2031,0.2227,0.3984c0,0.1328-0.0371,0.2363-0.1113,0.3105s-0.1699,0.1113-0.2871,0.1113
				c-0.043,0-0.084-0.0049-0.123-0.0146s-0.0801-0.0244-0.123-0.0439l-0.1523-0.0645c-0.043-0.0195-0.084-0.0361-0.123-0.0498
				s-0.0684-0.0205-0.0879-0.0205c-0.1758,0-0.4199,0.2275-0.7324,0.6826s-0.4688,0.7178-0.4688,0.7881
				c0,0.0586,0.0361,0.249,0.1084,0.5713s0.1514,0.6631,0.2373,1.0225c0.0781,0.3398,0.1445,0.5742,0.1992,0.7031
				c0.0898,0.2109,0.1914,0.3164,0.3047,0.3164c0.1055,0,0.2129-0.0586,0.3223-0.1758s0.2734-0.3281,0.4922-0.6328l0.1641,0.0996
				c-0.168,0.3047-0.3418,0.5645-0.5215,0.7793c-0.3398,0.4062-0.6641,0.6094-0.9727,0.6094c-0.1953,0-0.3496-0.0938-0.4629-0.2812
				c-0.0664-0.1094-0.1309-0.2891-0.1934-0.5391l-0.3633-1.4473l-1.2012,1.5762c-0.2344,0.2734-0.415,0.457-0.542,0.5508
				s-0.2842,0.1406-0.4717,0.1406c-0.25,0-0.4199-0.0781-0.5098-0.2344c-0.0508-0.082-0.0762-0.1797-0.0762-0.293
				C77.7493,165.7959,77.7962,165.6875,77.89,165.623z"/>
		</g>
		<g>
			<path d="M83.7586,169.2686c0.8267-0.8574,1.3877-1.4873,1.6836-1.8887s0.4438-0.793,0.4438-1.1748
				c0-0.333-0.0903-0.5879-0.271-0.7627s-0.3965-0.2627-0.647-0.2627c-0.3096,0-0.5601,0.1133-0.752,0.3389
				c-0.1064,0.124-0.208,0.3145-0.3052,0.5723l-0.1455-0.0312c0.1128-0.5186,0.3042-0.8789,0.5742-1.0811
				s0.5596-0.3027,0.8687-0.3027c0.3818,0,0.6904,0.1201,0.9268,0.3604c0.2358,0.2402,0.354,0.5342,0.354,0.8818
				c0,0.3701-0.1279,0.7266-0.3828,1.0693c-0.2554,0.3428-0.8101,0.9531-1.6641,1.8311h1.5552c0.2168,0,0.3696-0.0264,0.4575-0.0781
				c0.0884-0.0518,0.1875-0.1777,0.2983-0.3789l0.0879,0.041l-0.376,0.9443h-2.7065V169.2686z"/>
		</g>
	</g>
	<g>
		<g>
			<path d="M167.9525,165.623c0.0938-0.0645,0.1895-0.0967,0.2871-0.0967c0.0469,0,0.0938,0.0068,0.1406,0.0205
				s0.0977,0.0361,0.1523,0.0674l0.2051,0.1113c0.0273,0.0156,0.0537,0.0264,0.0791,0.0322s0.0537,0.0088,0.085,0.0088
				c0.0977,0,0.1729-0.0244,0.2256-0.0732s0.1885-0.2197,0.4072-0.5127c0.1445-0.1914,0.4727-0.6582,0.9844-1.4004
				c0-0.0273-0.0449-0.2373-0.1348-0.6299s-0.1719-0.7256-0.2461-0.999c-0.0742-0.2773-0.1406-0.46-0.1992-0.5479
				s-0.168-0.1318-0.3281-0.1318c-0.0547,0-0.1621,0.0195-0.3223,0.0586c-0.1016,0.0234-0.2109,0.0508-0.3281,0.082l-0.0527-0.1816
				l0.6504-0.2227c0.168-0.0586,0.3232-0.1055,0.4658-0.1406s0.2646-0.0527,0.3662-0.0527c0.1641,0,0.2871,0.0488,0.3691,0.1465
				c0.125,0.1562,0.2305,0.4648,0.3164,0.9258l0.123,0.668c0.3516-0.5391,0.625-0.918,0.8203-1.1367
				c0.1758-0.1992,0.3418-0.3477,0.498-0.4453s0.3047-0.1465,0.4453-0.1465c0.1328,0,0.2402,0.0195,0.3223,0.0586
				c0.1484,0.0703,0.2227,0.2031,0.2227,0.3984c0,0.1328-0.0371,0.2363-0.1113,0.3105s-0.1699,0.1113-0.2871,0.1113
				c-0.043,0-0.084-0.0049-0.123-0.0146s-0.0801-0.0244-0.123-0.0439l-0.1523-0.0645c-0.043-0.0195-0.084-0.0361-0.123-0.0498
				s-0.0684-0.0205-0.0879-0.0205c-0.1758,0-0.4199,0.2275-0.7324,0.6826s-0.4688,0.7178-0.4688,0.7881
				c0,0.0586,0.0361,0.249,0.1084,0.5713s0.1514,0.6631,0.2373,1.0225c0.0781,0.3398,0.1445,0.5742,0.1992,0.7031
				c0.0898,0.2109,0.1914,0.3164,0.3047,0.3164c0.1055,0,0.2129-0.0586,0.3223-0.1758s0.2734-0.3281,0.4922-0.6328l0.1641,0.0996
				c-0.168,0.3047-0.3418,0.5645-0.5215,0.7793c-0.3398,0.4062-0.6641,0.6094-0.9727,0.6094c-0.1953,0-0.3496-0.0938-0.4629-0.2812
				c-0.0664-0.1094-0.1309-0.2891-0.1934-0.5391l-0.3633-1.4473l-1.2012,1.5762c-0.2344,0.2734-0.415,0.457-0.542,0.5508
				s-0.2842,0.1406-0.4717,0.1406c-0.25,0-0.4199-0.0781-0.5098-0.2344c-0.0508-0.082-0.0762-0.1797-0.0762-0.293
				C167.8118,165.7959,167.8587,165.6875,167.9525,165.623z"/>
		</g>
		<g>
			<path d="M175.0316,166.2764c0.0127,0.0078,0.0166,0.0176,0.0146,0.0283l-0.6836,2.4189
				c-0.0312,0.1289-0.0469,0.2051-0.0469,0.2305c0,0.0332,0.0059,0.0625,0.0195,0.0879c0.0117,0.0273,0.04,0.04,0.085,0.04
				c0.0771,0,0.1787-0.0664,0.3057-0.1992c0.0742-0.0791,0.166-0.1924,0.2734-0.3389l0.0879,0.0742l-0.0332,0.0479
				c-0.1699,0.2373-0.3096,0.4072-0.4199,0.5117c-0.1738,0.1621-0.3438,0.2432-0.5078,0.2432c-0.0977,0-0.1787-0.04-0.2422-0.1221
				c-0.0645-0.0811-0.0977-0.1768-0.0977-0.2871c0-0.0654,0.0049-0.123,0.0137-0.1719c0.0098-0.0479,0.0264-0.1201,0.0508-0.2148
				l0.4824-1.7412c0.0068-0.0273,0.0127-0.0518,0.0176-0.0742c0.0039-0.0225,0.0059-0.0449,0.0059-0.0674
				c0-0.082-0.0293-0.1318-0.0898-0.1514c-0.0586-0.0186-0.1777-0.0283-0.3535-0.0283v-0.1123
				c0.1865-0.0225,0.3203-0.04,0.4023-0.0527c0.082-0.0117,0.1641-0.0254,0.2471-0.0381c0.1074-0.0186,0.21-0.0391,0.3057-0.0615
				S175.0189,166.2686,175.0316,166.2764z M174.7122,165.4277c-0.0664-0.0723-0.0986-0.1592-0.0986-0.2607
				c0-0.1045,0.0322-0.1924,0.0986-0.2646c0.0645-0.0723,0.1445-0.1084,0.2363-0.1084c0.0928,0,0.1719,0.0361,0.2393,0.1084
				c0.0664,0.0723,0.0996,0.1602,0.0996,0.2646c0,0.1035-0.0332,0.1914-0.0996,0.2617c-0.0674,0.0713-0.1465,0.1074-0.2393,0.1074
				C174.8568,165.5361,174.7767,165.5,174.7122,165.4277z"/>
		</g>
	</g>
	<g>
		<g>
			<path d="M219.765,165.623c0.0938-0.0645,0.1895-0.0967,0.2871-0.0967c0.0469,0,0.0938,0.0068,0.1406,0.0205
				s0.0977,0.0361,0.1523,0.0674l0.2051,0.1113c0.0273,0.0156,0.0537,0.0264,0.0791,0.0322s0.0537,0.0088,0.085,0.0088
				c0.0977,0,0.1729-0.0244,0.2256-0.0732s0.1885-0.2197,0.4072-0.5127c0.1445-0.1914,0.4727-0.6582,0.9844-1.4004
				c0-0.0273-0.0449-0.2373-0.1348-0.6299s-0.1719-0.7256-0.2461-0.999c-0.0742-0.2773-0.1406-0.46-0.1992-0.5479
				s-0.168-0.1318-0.3281-0.1318c-0.0547,0-0.1621,0.0195-0.3223,0.0586c-0.1016,0.0234-0.2109,0.0508-0.3281,0.082l-0.0527-0.1816
				l0.6504-0.2227c0.168-0.0586,0.3232-0.1055,0.4658-0.1406s0.2646-0.0527,0.3662-0.0527c0.1641,0,0.2871,0.0488,0.3691,0.1465
				c0.125,0.1562,0.2305,0.4648,0.3164,0.9258l0.123,0.668c0.3516-0.5391,0.625-0.918,0.8203-1.1367
				c0.1758-0.1992,0.3418-0.3477,0.498-0.4453s0.3047-0.1465,0.4453-0.1465c0.1328,0,0.2402,0.0195,0.3223,0.0586
				c0.1484,0.0703,0.2227,0.2031,0.2227,0.3984c0,0.1328-0.0371,0.2363-0.1113,0.3105s-0.1699,0.1113-0.2871,0.1113
				c-0.043,0-0.084-0.0049-0.123-0.0146s-0.0801-0.0244-0.123-0.0439l-0.1523-0.0645c-0.043-0.0195-0.084-0.0361-0.123-0.0498
				s-0.0684-0.0205-0.0879-0.0205c-0.1758,0-0.4199,0.2275-0.7324,0.6826s-0.4688,0.7178-0.4688,0.7881
				c0,0.0586,0.0361,0.249,0.1084,0.5713s0.1514,0.6631,0.2373,1.0225c0.0781,0.3398,0.1445,0.5742,0.1992,0.7031
				c0.0898,0.2109,0.1914,0.3164,0.3047,0.3164c0.1055,0,0.2129-0.0586,0.3223-0.1758s0.2734-0.3281,0.4922-0.6328l0.1641,0.0996
				c-0.168,0.3047-0.3418,0.5645-0.5215,0.7793c-0.3398,0.4062-0.6641,0.6094-0.9727,0.6094c-0.1953,0-0.3496-0.0938-0.4629-0.2812
				c-0.0664-0.1094-0.1309-0.2891-0.1934-0.5391l-0.3633-1.4473l-1.2012,1.5762c-0.2344,0.2734-0.415,0.457-0.542,0.5508
				s-0.2842,0.1406-0.4717,0.1406c-0.25,0-0.4199-0.0781-0.5098-0.2344c-0.0508-0.082-0.0762-0.1797-0.0762-0.293
				C219.6243,165.7959,219.6712,165.6875,219.765,165.623z"/>
		</g>
		<g>
			<path d="M225.5521,169.3467l0.5801-2.0938c0.0498-0.1768,0.0781-0.2842,0.0859-0.3213c0.0078-0.0381,0.0117-0.0781,0.0117-0.1211
				c0-0.0654-0.0176-0.1172-0.0547-0.1553c-0.0381-0.0371-0.1113-0.0557-0.2188-0.0557c-0.0273,0-0.0547,0.002-0.0801,0.0049
				c-0.0254,0.0039-0.0547,0.0078-0.0859,0.0117v-0.1113c0.1455-0.0225,0.249-0.04,0.3105-0.0508
				c0.0625-0.0117,0.1289-0.0254,0.2012-0.041l0.6016-0.1318c0.0137,0.0088,0.0225,0.0186,0.0273,0.0303l-0.4492,1.457
				c0.2773-0.4229,0.5098-0.7363,0.6953-0.9424c0.3281-0.3633,0.6211-0.5449,0.8809-0.5449c0.0996,0,0.1855,0.0186,0.2588,0.0576
				c0.1377,0.0742,0.208,0.209,0.208,0.4033c0,0.0537-0.0059,0.1104-0.0176,0.1689s-0.0254,0.1221-0.0439,0.1895l-0.4463,1.623
				c-0.0078,0.0332-0.0186,0.0752-0.0293,0.123c-0.0117,0.0488-0.0176,0.083-0.0176,0.1035c0,0.0342,0.0078,0.0645,0.0234,0.0918
				s0.041,0.04,0.0762,0.04c0.0566,0,0.1211-0.0342,0.1953-0.1025c0.0723-0.0693,0.1934-0.2168,0.3594-0.4424l0.0986,0.0879
				c-0.1816,0.251-0.3252,0.4268-0.4316,0.5283c-0.1816,0.1787-0.3555,0.2676-0.5215,0.2676c-0.0752,0-0.1475-0.0254-0.2178-0.0762
				s-0.1055-0.1426-0.1055-0.2754c0-0.0391,0.0039-0.0791,0.0088-0.1221c0.0059-0.043,0.0127-0.0801,0.0225-0.1123l0.4316-1.6465
				c0.0234-0.0898,0.0381-0.1641,0.0459-0.2217s0.0117-0.0986,0.0117-0.123c0-0.0547-0.0127-0.1016-0.0391-0.1406
				c-0.0264-0.04-0.0723-0.0596-0.1377-0.0596c-0.1719,0-0.3887,0.1533-0.6484,0.46c-0.1543,0.1826-0.3096,0.4004-0.4668,0.6533
				c-0.1191,0.1963-0.2109,0.3877-0.2793,0.5732c-0.0684,0.1865-0.1758,0.5254-0.3232,1.0166H225.5521z"/>
		</g>
		<rect x="229.2237" y="167.3481" width="3.6347" height="0.3828"/>
		<g>
			<path d="M234.7767,164.7178c0.001,0.0059,0.002,0.0186,0.002,0.0391v4.0781c0,0.1738,0.0459,0.2852,0.1387,0.332
				c0.0938,0.0479,0.2676,0.0762,0.5215,0.085v0.0947h-1.9141v-0.1016c0.2734-0.0137,0.4512-0.0508,0.5352-0.1123
				c0.084-0.0605,0.125-0.1924,0.125-0.3955v-3.1367c0-0.1084-0.0137-0.1914-0.04-0.248c-0.0273-0.0557-0.0859-0.084-0.1768-0.084
				c-0.0586,0-0.1348,0.0156-0.2285,0.0488c-0.0938,0.0322-0.1816,0.0674-0.2617,0.1035v-0.0947l1.2422-0.6338h0.041
				C234.7708,164.7041,234.7747,164.7119,234.7767,164.7178z"/>
		</g>
	</g>
	<path class="st3" d="M45.4167,75.7008c0,13.4993,0,80.7083,0,80.7083"/>
	<path class="st3" d="M63.2917,55.9925c0,16.8098,0,100.5013,0,100.5013"/>
	<path class="st3" d="M45.4583,75.4404"/>
	<path class="st3" d="M117.25,106.8258c0,8.2863,0,49.5417,0,49.5417"/>
	<path class="st3" d="M135.25,99.7842c0,9.4502,0,56.5,0,56.5"/>
	<path class="st3" d="M171.2917,48.7842c0,18.0153,0,107.7083,0,107.7083"/>
	<path class="st3" d="M189.25,35.7842c0,20.1687,0,120.5833,0,120.5833"/>
	<path class="st3" d="M207.25,51.5758c0,17.5274,0,104.7917,0,104.7917"/>
	<path class="st3" d="M225.375,82.6175c0,12.3424,0,73.7917,0,73.7917"/>
	<path class="st3" d="M243.25,66.4925c0,15.0464,0,89.9583,0,89.9583"/>
	<line class="st3" x1="63.3021" y1="56.0029" x2="45.3646" y2="75.4092"/>
	<line class="st3" x1="81.2396" y1="92.6592" x2="63.2396" y2="56.0342"/>
	<line class="st3" x1="99.375" y1="105.2425" x2="81.25" y2="92.6592"/>
	<line class="st3" x1="117.2083" y1="106.8675" x2="99.3125" y2="105.18"/>
	<line class="st3" x1="135.25" y1="99.805" x2="117.2292" y2="106.9092"/>
	<line class="st3" x1="153.3542" y1="82.2008" x2="135.2292" y2="99.8467"/>
	<line class="st3" x1="171.25" y1="48.7842" x2="153.3125" y2="82.2008"/>
	<line class="st3" x1="189.25" y1="35.8467" x2="171.2917" y2="48.7425"/>
	<line class="st3" x1="207.2292" y1="51.5758" x2="189.25" y2="35.805"/>
	<line class="st3" x1="225.3542" y1="82.555" x2="207.2083" y2="51.555"/>
	<line class="st3" x1="243.2917" y1="66.4925" x2="225.375" y2="82.5342"/>
	<path class="st4" d="M45.375,75.4508c3.5-9.25,17.9653-31.6693,22.2083-11.7917c11.5,53.875,69.3862,63.4421,98-3.5
		c20.25-47.375,39.75-15.375,50.5,8.5c10.795,23.9749,21.5,19,27.25-2.25"/>
	<circle class="st5" cx="45.3333" cy="75.4092" r="1.8437"/>
	<circle class="st5" cx="243.3333" cy="66.3259" r="1.8437"/>
	<g>
		<g>
			<path d="M95.515,165.623c0.0938-0.0645,0.1895-0.0967,0.2871-0.0967c0.0469,0,0.0938,0.0068,0.1406,0.0205
				s0.0977,0.0361,0.1523,0.0674l0.2051,0.1113c0.0273,0.0156,0.0537,0.0264,0.0791,0.0322s0.0537,0.0088,0.085,0.0088
				c0.0977,0,0.1729-0.0244,0.2256-0.0732s0.1885-0.2197,0.4072-0.5127c0.1445-0.1914,0.4727-0.6582,0.9844-1.4004
				c0-0.0273-0.0449-0.2373-0.1348-0.6299s-0.1719-0.7256-0.2461-0.999c-0.0742-0.2773-0.1406-0.46-0.1992-0.5479
				s-0.168-0.1318-0.3281-0.1318c-0.0547,0-0.1621,0.0195-0.3223,0.0586c-0.1016,0.0234-0.2109,0.0508-0.3281,0.082l-0.0527-0.1816
				l0.6504-0.2227c0.168-0.0586,0.3232-0.1055,0.4658-0.1406s0.2646-0.0527,0.3662-0.0527c0.1641,0,0.2871,0.0488,0.3691,0.1465
				c0.125,0.1562,0.2305,0.4648,0.3164,0.9258l0.123,0.668c0.3516-0.5391,0.625-0.918,0.8203-1.1367
				c0.1758-0.1992,0.3418-0.3477,0.498-0.4453s0.3047-0.1465,0.4453-0.1465c0.1328,0,0.2402,0.0195,0.3223,0.0586
				c0.1484,0.0703,0.2227,0.2031,0.2227,0.3984c0,0.1328-0.0371,0.2363-0.1113,0.3105s-0.1699,0.1113-0.2871,0.1113
				c-0.043,0-0.084-0.0049-0.123-0.0146s-0.0801-0.0244-0.123-0.0439l-0.1523-0.0645c-0.043-0.0195-0.084-0.0361-0.123-0.0498
				s-0.0684-0.0205-0.0879-0.0205c-0.1758,0-0.4199,0.2275-0.7324,0.6826s-0.4688,0.7178-0.4688,0.7881
				c0,0.0586,0.0361,0.249,0.1084,0.5713s0.1514,0.6631,0.2373,1.0225c0.0781,0.3398,0.1445,0.5742,0.1992,0.7031
				c0.0898,0.2109,0.1914,0.3164,0.3047,0.3164c0.1055,0,0.2129-0.0586,0.3223-0.1758s0.2734-0.3281,0.4922-0.6328l0.1641,0.0996
				c-0.168,0.3047-0.3418,0.5645-0.5215,0.7793c-0.3398,0.4062-0.6641,0.6094-0.9727,0.6094c-0.1953,0-0.3496-0.0938-0.4629-0.2812
				c-0.0664-0.1094-0.1309-0.2891-0.1934-0.5391l-0.3633-1.4473l-1.2012,1.5762c-0.2344,0.2734-0.415,0.457-0.542,0.5508
				s-0.2842,0.1406-0.4717,0.1406c-0.25,0-0.4199-0.0781-0.5098-0.2344c-0.0508-0.082-0.0762-0.1797-0.0762-0.293
				C95.3743,165.7959,95.4212,165.6875,95.515,165.623z"/>
		</g>
		<g>
			<path d="M102.3333,168.9521c0.2046,0.1299,0.3779,0.1943,0.52,0.1943c0.3164,0,0.5513-0.1064,0.7046-0.3203
				c0.1538-0.2139,0.2305-0.4463,0.2305-0.6973c0-0.2422-0.062-0.4541-0.186-0.6377c-0.2104-0.3096-0.5649-0.4648-1.064-0.4648
				c-0.0293,0-0.0576,0.001-0.0845,0.002c-0.0273,0.001-0.0591,0.0039-0.0952,0.0078l-0.0063-0.0879
				c0.3613-0.1309,0.6455-0.2812,0.8535-0.4502c0.2075-0.1699,0.3115-0.3936,0.3115-0.6709c0-0.2461-0.082-0.4336-0.2456-0.5625
				s-0.3506-0.1934-0.5605-0.1934c-0.2485,0-0.4673,0.0918-0.6572,0.2744c-0.104,0.0996-0.2158,0.2529-0.3354,0.4609l-0.105-0.0234
				c0.0903-0.3438,0.2588-0.6182,0.5049-0.8232s0.5308-0.3086,0.8535-0.3086c0.3457,0,0.6128,0.0947,0.8013,0.2852
				c0.1885,0.1895,0.2827,0.4082,0.2827,0.6572c0,0.2188-0.0776,0.4199-0.2334,0.6025c-0.0884,0.1035-0.2251,0.2207-0.4102,0.3486
				c0.2168,0.0928,0.3906,0.2012,0.5215,0.3252c0.2461,0.2373,0.3696,0.5381,0.3696,0.9014c0,0.4287-0.1689,0.8076-0.5068,1.1348
				c-0.3374,0.3271-0.8179,0.4912-1.4409,0.4912c-0.2778,0-0.4727-0.041-0.5845-0.124c-0.1118-0.082-0.168-0.1709-0.168-0.2656
				c0-0.0586,0.019-0.1152,0.0562-0.1689c0.0371-0.0547,0.0977-0.082,0.1812-0.082
				C101.9647,168.7568,102.1292,168.8223,102.3333,168.9521z"/>
		</g>
	</g>
	<g>
		<g>
			<path d="M113.89,165.623c0.0938-0.0645,0.1895-0.0967,0.2871-0.0967c0.0469,0,0.0938,0.0068,0.1406,0.0205
				s0.0977,0.0361,0.1523,0.0674l0.2051,0.1113c0.0273,0.0156,0.0537,0.0264,0.0791,0.0322s0.0537,0.0088,0.085,0.0088
				c0.0977,0,0.1729-0.0244,0.2256-0.0732s0.1885-0.2197,0.4072-0.5127c0.1445-0.1914,0.4727-0.6582,0.9844-1.4004
				c0-0.0273-0.0449-0.2373-0.1348-0.6299s-0.1719-0.7256-0.2461-0.999c-0.0742-0.2773-0.1406-0.46-0.1992-0.5479
				s-0.168-0.1318-0.3281-0.1318c-0.0547,0-0.1621,0.0195-0.3223,0.0586c-0.1016,0.0234-0.2109,0.0508-0.3281,0.082l-0.0527-0.1816
				l0.6504-0.2227c0.168-0.0586,0.3232-0.1055,0.4658-0.1406s0.2646-0.0527,0.3662-0.0527c0.1641,0,0.2871,0.0488,0.3691,0.1465
				c0.125,0.1562,0.2305,0.4648,0.3164,0.9258l0.123,0.668c0.3516-0.5391,0.625-0.918,0.8203-1.1367
				c0.1758-0.1992,0.3418-0.3477,0.498-0.4453s0.3047-0.1465,0.4453-0.1465c0.1328,0,0.2402,0.0195,0.3223,0.0586
				c0.1484,0.0703,0.2227,0.2031,0.2227,0.3984c0,0.1328-0.0371,0.2363-0.1113,0.3105s-0.1699,0.1113-0.2871,0.1113
				c-0.043,0-0.084-0.0049-0.123-0.0146s-0.0801-0.0244-0.123-0.0439l-0.1523-0.0645c-0.043-0.0195-0.084-0.0361-0.123-0.0498
				s-0.0684-0.0205-0.0879-0.0205c-0.1758,0-0.4199,0.2275-0.7324,0.6826s-0.4688,0.7178-0.4688,0.7881
				c0,0.0586,0.0361,0.249,0.1084,0.5713s0.1514,0.6631,0.2373,1.0225c0.0781,0.3398,0.1445,0.5742,0.1992,0.7031
				c0.0898,0.2109,0.1914,0.3164,0.3047,0.3164c0.1055,0,0.2129-0.0586,0.3223-0.1758s0.2734-0.3281,0.4922-0.6328l0.1641,0.0996
				c-0.168,0.3047-0.3418,0.5645-0.5215,0.7793c-0.3398,0.4062-0.6641,0.6094-0.9727,0.6094c-0.1953,0-0.3496-0.0938-0.4629-0.2812
				c-0.0664-0.1094-0.1309-0.2891-0.1934-0.5391l-0.3633-1.4473l-1.2012,1.5762c-0.2344,0.2734-0.415,0.457-0.542,0.5508
				s-0.2842,0.1406-0.4717,0.1406c-0.25,0-0.4199-0.0781-0.5098-0.2344c-0.0508-0.082-0.0762-0.1797-0.0762-0.293
				C113.7493,165.7959,113.7962,165.6875,113.89,165.623z"/>
		</g>
		<g>
			<path d="M121.9232,164.6924h0.3223v3.0488h0.707v0.4502h-0.707v1.1553h-0.5391v-1.1553h-1.9512v-0.4502L121.9232,164.6924z
				 M121.6995,165.3916l-1.6631,2.3496h1.6631V165.3916z"/>
		</g>
	</g>
	<path d="M193.1707,164.3042c-0.1121-0.1399-0.168-0.294-0.168-0.462s0.0559-0.3219,0.168-0.462
		c0.1119-0.1399,0.2799-0.21,0.504-0.21c0.2239,0,0.39,0.0701,0.498,0.21c0.108,0.1401,0.162,0.294,0.162,0.462
		s-0.054,0.3221-0.162,0.462c-0.108,0.1401-0.2741,0.21-0.498,0.21C193.4506,164.5142,193.2826,164.4442,193.1707,164.3042z
		 M197.1667,164.3042c-0.1121-0.1399-0.168-0.294-0.168-0.462s0.0559-0.3219,0.168-0.462c0.1119-0.1399,0.2799-0.21,0.504-0.21
		c0.2239,0,0.39,0.0701,0.498,0.21c0.108,0.1401,0.162,0.294,0.162,0.462s-0.054,0.3221-0.162,0.462
		c-0.108,0.1401-0.2741,0.21-0.498,0.21C197.4466,164.5142,197.2786,164.4442,197.1667,164.3042z M201.1627,164.3042
		c-0.1121-0.1399-0.168-0.294-0.168-0.462s0.0559-0.3219,0.168-0.462c0.1119-0.1399,0.2799-0.21,0.504-0.21
		c0.2239,0,0.39,0.0701,0.498,0.21c0.108,0.1401,0.162,0.294,0.162,0.462s-0.054,0.3221-0.162,0.462
		c-0.108,0.1401-0.2741,0.21-0.498,0.21C201.4426,164.5142,201.2746,164.4442,201.1627,164.3042z"/>
	<path d="M140.3333,164.3042c-0.1121-0.1399-0.168-0.294-0.168-0.462s0.0559-0.3219,0.168-0.462
		c0.1119-0.1399,0.2799-0.21,0.504-0.21c0.2239,0,0.39,0.0701,0.498,0.21c0.108,0.1401,0.162,0.294,0.162,0.462
		s-0.054,0.3221-0.162,0.462c-0.108,0.1401-0.2741,0.21-0.498,0.21C140.6133,164.5142,140.4453,164.4442,140.3333,164.3042z
		 M144.3293,164.3042c-0.1121-0.1399-0.168-0.294-0.168-0.462s0.0559-0.3219,0.168-0.462c0.1119-0.1399,0.2799-0.21,0.504-0.21
		c0.2239,0,0.39,0.0701,0.498,0.21c0.108,0.1401,0.162,0.294,0.162,0.462s-0.054,0.3221-0.162,0.462
		c-0.108,0.1401-0.2741,0.21-0.498,0.21C144.6093,164.5142,144.4413,164.4442,144.3293,164.3042z M148.3253,164.3042
		c-0.1121-0.1399-0.168-0.294-0.168-0.462s0.0559-0.3219,0.168-0.462c0.1119-0.1399,0.2799-0.21,0.504-0.21
		c0.2239,0,0.39,0.0701,0.498,0.21c0.108,0.1401,0.162,0.294,0.162,0.462s-0.054,0.3221-0.162,0.462
		c-0.108,0.1401-0.2741,0.21-0.498,0.21C148.6053,164.5142,148.4373,164.4442,148.3253,164.3042z"/>
</g>
<g id="_x3C_Layer_x3E__1_">
	<g>
	</g>
</g>
</svg>
